<svg width="23" height="20" viewBox="0 0 23 20" fill="none" xmlns="http://www.w3.org/2000/svg">
<path d="M11.25 0C16.5 0 20 1.375 20 3.125V3.75V5C20.6914 5 21.25 5.55859 21.25 6.25V8.75C21.25 9.44141 20.6914 10 20 10V16.25C20 16.9414 19.4414 17.5 18.75 17.5V18.75C18.75 19.4414 18.1914 20 17.5 20H16.25C15.5586 20 15 19.4414 15 18.75V17.5H7.5V18.75C7.5 19.4414 6.94141 20 6.25 20H5C4.30859 20 3.75 19.4414 3.75 18.75V17.5C3.05859 17.5 2.5 16.9414 2.5 16.25V10C1.80859 10 1.25 9.44141 1.25 8.75V6.25C1.25 5.55859 1.80859 5 2.5 5V3.75V3.125C2.5 1.375 6 0 11.25 0ZM5 6.25V10C5 10.6914 5.55859 11.25 6.25 11.25H10.625V5H6.25C5.55859 5 5 5.55859 5 6.25ZM11.875 11.25H16.25C16.9414 11.25 17.5 10.6914 17.5 10V6.25C17.5 5.55859 16.9414 5 16.25 5H11.875V11.25ZM5.625 15.625C6.31489 15.625 6.875 15.0649 6.875 14.375C6.875 13.6851 6.31489 13.125 5.625 13.125C4.93511 13.125 4.375 13.6851 4.375 14.375C4.375 15.0649 4.93511 15.625 5.625 15.625ZM16.875 15.625C17.5649 15.625 18.125 15.0649 18.125 14.375C18.125 13.6851 17.5649 13.125 16.875 13.125C16.1851 13.125 15.625 13.6851 15.625 14.375C15.625 15.0649 16.1851 15.625 16.875 15.625ZM15 3.125C15 2.78125 14.7188 2.5 14.375 2.5H8.125C7.78125 2.5 7.5 2.78125 7.5 3.125Cnan nan 7.78125 3.75 8.125 3.75H14.375C14.7188 3.75 15 3.46875 15 3.125Z" fill="#F4F4F4"/>
</svg>
